[b]Unique ID                        : 229318435656476446593498926877778185977 (0xAC851FCBC5FA4008B822CAEB4C410EF9)
Format                           : Matroska
File size                        : 4.37 GiB
Duration                         : 1h 38mn
Overall bit rate                 : 6 364 Kbps
Encoded date                     : UTC 2010-11-09 23:43:14
Writing application              : mkvmerge v3.3.0 ('Language') built on Mar 24 2010 14:59:24
Writing library                  : libebml v0.8.0 + libmatroska v0.9.0


ID                               : 1
Format                           : AVC
Format/Info                      : Advanced Video Codec
Format profile                   : High@L4.1
Format settings, CABAC           : Yes
Format settings, ReFrames        : 5 frames
Codec ID                         : V_MPEG4/ISO/AVC
Duration                         : 1h 38mn
Bit rate                         : 4 851 Kbps
Width                            : 1 280 pixels
Height                           : 528 pixels
Display aspect ratio             : 2.40:1
Frame rate                       : 23.976 fps
Color space                      : YUV
Chroma subsampling               : 4:2:0
Bit depth                        : 8 bits
Scan type                        : Progressive
Bits/(Pixel*Frame)               : 0.299
Stream size                      : 3.25 GiB (74%)
Writing library                  : x264 core 106 r1732 b20059a
Encoding settings                : cabac=1 / ref=5 / deblock=1:-1:-1 / analyse=0x3:0x113 / me=umh / subme=7 / psy=1 / psy_rd=1.00:0.00 / mixed_ref=1 / me_range=16 / chroma_me=1 / trellis=1 / 8x8dct=1 / cqm=0 / deadzone=21,11 / fast_pskip=1 / chroma_qp_offset=-2 / threads=12 / sliced_threads=0 / nr=0 / decimate=1 / interlaced=0 / constrained_intra=0 / bframes=3 / b_pyramid=2 / b_adapt=2 / b_bias=0 / direct=3 / weightb=1 / open_gop=0 / weightp=2 / keyint=250 / keyint_min=23 / scenecut=40 / intra_refresh=0 / rc_lookahead=40 / rc=2pass / mbtree=1 / bitrate=4851 / ratetol=1.0 / qcomp=0.60 / qpmin=10 / qpmax=51 / qpstep=4 / cplxblur=20.0 / qblur=0.5 / vbv_maxrate=50000 / vbv_bufsize=50000 / ip_ratio=1.40 / aq=1:1.00 / nal_hrd=none
Language                         : English


ID                               : 2
Format                           : DTS
Format/Info                      : Digital Theater Systems
Codec ID                         : A_DTS
Duration                         : 1h 38mn
Bit rate mode                    : Constant
Bit rate                         : 1 510 Kbps
Channel(s)                       : 6 channels
Channel positions                : Front: L C R, Side: L R, LFE
Sampling rate                    : 48.0 KHz
Bit depth                        : 16 bits
Compression mode                 : Lossy
Stream size                      : 1.04 GiB (24%)
Language                         : English

 
http://www.imdb.com/title/tt1236471/

[icon=cast2]
	Kristanna Loken	 ...	
Malin Lausberg
 	David O'Hara	 ...	
Freddie Smith
 	Noah Danby	 ...	
Theo Schwartz
 	Matt Frewer	 ...	
Ted Duncan
 	Hakeem Kae-Kazim	 ...	
Captain Jack Tobamke
 	Sammy Sheik	 ...	
Janjaweed Commander


[icon=plot2]
American journalists in Sudan are confronted with the dilemma of whether to return home to report on the atrocities they have seen, or to stay behind and help some of the victims they have encountered.[/b]